<svg width="103" height="30" viewBox="0 0 103 30" fill="none" xmlns="http://www.w3.org/2000/svg">
<path d="M0 4.73284V7.2355H6.94297V25.5883H9.4568V7.2355H16.4596V4.73284H0Z" fill="#0A0F26"/>
<path d="M29.1485 10.6916L29.2383 13.224C28.6996 12.36 27.9814 11.645 27.0836 11.0789C26.1858 10.5426 25.1383 10.2447 23.9712 10.2447C22.8938 10.2447 21.9063 10.4532 20.9785 10.8405C20.0508 11.2278 19.2129 11.7939 18.4946 12.509C17.7764 13.224 17.2377 14.0582 16.8187 14.9818C16.4297 15.9352 16.2202 16.9184 16.2202 17.991C16.2202 19.0933 16.4297 20.1063 16.8187 21.0597C17.2377 22.0131 17.8063 22.8473 18.5246 23.5922C19.2428 24.337 20.1107 24.9031 21.0683 25.3202C22.026 25.7373 23.0435 25.9459 24.1508 25.9459C25.288 25.9459 26.2456 25.6777 27.0836 25.1414C27.9215 24.6052 28.55 23.9199 29.0288 23.0559L29.1186 25.5883H31.6623V10.6916H29.1485ZM28.4303 20.8214C28.0711 21.6556 27.5025 22.3111 26.7843 22.8175C26.0661 23.324 25.1982 23.5624 24.2106 23.5624C23.253 23.5624 22.3552 23.324 21.5471 22.8473C20.7391 22.3706 20.0807 21.745 19.572 20.9405C19.0632 20.1361 18.7939 19.2423 18.734 18.2591C18.7041 17.2461 18.8837 16.3225 19.3625 15.4883C19.8114 14.6541 20.4399 13.9986 21.2479 13.4922C22.0559 12.9857 22.9537 12.7473 23.9413 12.7473C24.8989 12.7473 25.7668 12.9857 26.485 13.4624C27.2033 13.9391 27.8018 14.5647 28.2208 15.3691C28.6397 16.1736 28.8792 17.0674 28.9091 18.0804C28.9689 19.0338 28.8193 19.9872 28.4303 20.8214Z" fill="#0A0F26"/>
<path d="M43.0943 17.9314C42.3162 17.5441 41.4483 17.2163 40.5505 16.9482C39.9221 16.7397 39.3535 16.5609 38.8447 16.4119C38.306 16.263 37.8871 16.0544 37.5878 15.7863C37.2586 15.5181 37.109 15.1606 37.109 14.6541C37.109 14.1476 37.2586 13.7305 37.5579 13.373C37.8571 13.0155 38.2761 12.7771 38.7549 12.5983C39.2637 12.4196 39.8023 12.36 40.371 12.36C40.8498 12.36 41.2987 12.4494 41.7476 12.5983C42.1965 12.7473 42.5855 12.9857 42.9446 13.2538C43.3038 13.5219 43.5432 13.8497 43.7227 14.2072L45.7577 13.0155C45.2789 12.1216 44.5308 11.4364 43.5432 10.9299C42.5556 10.4234 41.4483 10.1553 40.2213 10.1553C39.2637 10.1553 38.3659 10.334 37.5279 10.7213C36.69 11.0789 36.0316 11.6152 35.4929 12.2706C34.9842 12.9559 34.7148 13.7305 34.7148 14.6541C34.7148 15.5181 34.9542 16.2332 35.4031 16.7992C35.852 17.3653 36.5104 17.8122 37.3184 18.1995C38.1265 18.5571 39.0542 18.8848 40.0717 19.1231C40.5804 19.2721 41.0892 19.4211 41.5979 19.5998C42.1067 19.7488 42.5257 19.9872 42.8549 20.2553C43.1841 20.5234 43.3636 20.9405 43.3636 21.4172C43.3636 21.8939 43.214 22.2813 42.9147 22.609C42.6154 22.9367 42.2264 23.2049 41.7476 23.3538C41.2688 23.5326 40.76 23.5922 40.1914 23.5922C39.6826 23.5922 39.144 23.5028 38.6651 23.324C38.1564 23.1453 37.7075 22.9069 37.3184 22.609C36.9294 22.3111 36.6601 21.9833 36.5104 21.6556L34.3557 22.5792C34.6251 23.2049 35.044 23.7411 35.6126 24.2178C36.1812 24.6945 36.8396 25.0521 37.6177 25.35C38.3958 25.6181 39.1739 25.7671 39.9819 25.7969C40.9695 25.8267 41.9271 25.6777 42.795 25.3202C43.6629 24.9627 44.3811 24.4562 44.9198 23.7709C45.4585 23.0857 45.7577 22.2813 45.7577 21.3874C45.7577 20.5532 45.5183 19.868 45.0395 19.3019C44.5308 18.7954 43.8724 18.3187 43.0943 17.9314Z" fill="#0A0F26"/>
<path d="M55.6634 16.7099L60.751 10.6916H57.459L51.1745 18.1399V3.24316H48.6606V25.5883H51.1745V22.0131L53.9277 18.7358L57.9079 25.5883H60.8108L55.6634 16.7099Z" fill="#0A0F26"/>
<path d="M102.068 11.3258C101.589 10.2276 100.974 9.26661 100.119 8.44294C99.2988 7.61926 98.3416 6.96719 97.2477 6.48672C96.1538 6.00624 94.9915 5.80032 93.7609 5.80032C92.7695 5.80032 91.8808 6.00624 91.1287 6.4524C90.3766 6.89855 89.7271 7.44767 89.1802 8.09974V6.31512C89.1802 4.56482 88.4623 2.98611 87.3342 1.85357C86.2061 0.721019 84.5995 0.000306897 82.8561 0.000306897C79.4035 -0.0340127 76.5661 2.81452 76.5661 6.31512V16.9885C76.5661 17.8122 76.4294 18.5329 76.1559 19.2193C75.8825 19.8714 75.4722 20.4205 74.9253 20.798C74.3783 21.1755 73.7288 21.3814 72.9426 21.3814C72.1564 21.3814 71.4727 21.1755 70.8574 20.798C70.242 20.3862 69.7976 19.8714 69.4558 19.2193C69.114 18.5672 68.943 17.8122 68.943 16.9885V10.6644C68.943 9.3617 67.887 8.30566 66.5843 8.30566C65.2816 8.30566 64.2256 9.36169 64.2256 10.6644V17.0572C64.2256 18.7045 64.5674 20.1803 65.2169 21.5187C65.8664 22.8572 66.7552 23.9554 67.9175 24.7448C69.0798 25.5341 70.4813 25.9459 72.088 25.9459C73.0452 25.9459 73.8998 25.74 74.6518 25.2939C75.4039 24.882 76.0534 24.3329 76.5661 23.6809C76.5661 24.9318 77.5803 25.9459 78.8312 25.9459H78.9249C80.2276 25.9459 81.2836 24.8899 81.2836 23.5872V6.1092C81.2836 5.21689 82.0015 4.49618 82.8561 4.49618C83.3005 4.49618 83.7107 4.66778 83.9842 4.97665C84.2576 5.25121 84.4627 5.66305 84.4627 6.1092V27.6413C84.4627 28.944 85.5188 30 86.8215 30C88.1241 30 89.1802 28.944 89.1802 27.6413V21.5874C89.7271 22.2394 90.3766 22.7885 91.1287 23.2347C91.8808 23.6809 92.7695 23.8868 93.7609 23.8868C94.9915 23.8868 96.1538 23.6465 97.2477 23.1661C98.3416 22.6856 99.2988 22.0335 100.119 21.2098C100.94 20.3862 101.589 19.4252 102.068 18.327C102.546 17.2288 102.751 16.0619 102.751 14.8264C102.751 13.5566 102.546 12.3897 102.068 11.3258ZM97.3844 17.3317C97.0084 18.0181 96.4956 18.5329 95.8461 18.9447C95.1966 19.3566 94.4788 19.5625 93.7267 19.5625C92.9747 19.5625 92.2568 19.3566 91.6415 18.9447C91.0261 18.5329 90.5476 18.0181 90.1715 17.3317C89.8297 16.6453 89.6246 15.8903 89.6246 15.0666C89.6246 14.243 89.7955 13.4879 90.1715 12.8358C90.5134 12.1495 91.0261 11.6347 91.6415 11.2228C92.2568 10.811 92.9405 10.6051 93.7267 10.6051C94.513 10.6051 95.2308 10.811 95.8803 11.2228C96.5298 11.6347 97.0426 12.1838 97.4186 12.8702C97.7947 13.5566 97.9998 14.3116 97.9998 15.1009C97.9314 15.8903 97.7605 16.6453 97.3844 17.3317Z" fill="#FCCF14"/>
</svg>
