<svg width="8" height="12" viewBox="0 0 8 12" fill="none" xmlns="http://www.w3.org/2000/svg">
<path d="M6.49984 7.2C5.8555 7.2 5.33317 6.66274 5.33317 6C5.33317 5.33726 5.8555 4.8 6.49984 4.8C7.14417 4.8 7.6665 5.33726 7.6665 6C7.6665 6.66274 7.14417 7.2 6.49984 7.2Z" fill="#0A0F26"/>
<path d="M6.49984 12C5.8555 12 5.33317 11.4627 5.33317 10.8C5.33317 10.1373 5.8555 9.6 6.49984 9.6C7.14417 9.6 7.6665 10.1373 7.6665 10.8C7.6665 11.4627 7.14417 12 6.49984 12Z" fill="#0A0F26"/>
<path d="M6.49984 2.4C5.8555 2.4 5.33317 1.86274 5.33317 1.2C5.33317 0.537259 5.8555 7.26856e-07 6.49984 6.98691e-07C7.14417 6.70527e-07 7.6665 0.537259 7.6665 1.2C7.6665 1.86274 7.14417 2.4 6.49984 2.4Z" fill="#0A0F26"/>
<path d="M1.83317 7.2C1.18884 7.2 0.666504 6.66274 0.666504 6C0.666504 5.33726 1.18884 4.8 1.83317 4.8C2.4775 4.8 2.99984 5.33726 2.99984 6C2.99984 6.66274 2.4775 7.2 1.83317 7.2Z" fill="#0A0F26"/>
<path d="M1.83317 12C1.18884 12 0.666504 11.4627 0.666504 10.8C0.666504 10.1373 1.18884 9.6 1.83317 9.6C2.4775 9.6 2.99984 10.1373 2.99984 10.8C2.99984 11.4627 2.4775 12 1.83317 12Z" fill="#0A0F26"/>
<path d="M1.83317 2.4C1.18884 2.4 0.666503 1.86274 0.666503 1.2C0.666503 0.537258 1.18884 -9.76506e-07 1.83317 -5.09966e-08C2.4775 -7.91613e-08 2.99984 0.537258 2.99984 1.2C2.99984 1.86274 2.4775 2.4 1.83317 2.4Z" fill="#0A0F26"/>
</svg>
